<?xml version="1.0" encoding="UTF-8"?>
<svg id="_レイヤー_2" data-name="レイヤー 2" xmlns="http://www.w3.org/2000/svg" viewBox="0 0 88.24 11.03">
  <defs>
    <style>
      .cls-1 {
        fill: #fff;
      }
    </style>
  </defs>
  <g id="_レイヤー_1-2" data-name="レイヤー 1">
    <g>
      <polygon class="cls-1" points="5.19 0 5.19 0 3.49 .48 5.19 0"/>
      <polygon class="cls-1" points="0 10.22 0 10.22 6.55 8.43 0 10.22"/>
      <polygon class="cls-1" points="5.19 0 5.19 0 3.49 .48 5.19 0"/>
      <path class="cls-1" d="M9.73,0h-1.92L3.69,1.17c-.09.03-2.21.67-2.29,2.81-.03.75.15,1.27.51,1.55.62.46,1.66.14,1.67.14h.02s3.09-.87,3.09-.87l.19.69-3.08.86c-.07.02-.49.15-1,.15-.42,0-.91-.09-1.32-.39-.56-.42-.83-1.14-.8-2.14C.78,1.29,3.47.49,3.49.48l1.69-.48H.79c-.44,0-.79.36-.79.79v8.68l6.36-1.73s.08-.03.13-.04c.92-.28,3.35-1.03,2.82-3.89-.12-.42-.31-.69-.58-.84-.56-.31-1.39-.05-1.94.12-.08.03-.16.05-.23.07l-2.51.71-.19-.69,2.51-.71c.06-.02.14-.04.21-.06.62-.19,1.67-.52,2.49-.07.45.24.76.68.93,1.29v.03c.29,1.49-.07,2.69-1.06,3.57-.78.7-1.76,1-2.24,1.15-.05.02-.09.03-.13.04h-.02s-6.55,1.79-6.55,1.79h0c0,.45.36.81.79.81h8.94c.44,0,.79-.36.79-.79V.79c0-.44-.36-.79-.79-.79Z"/>
      <g>
        <path class="cls-1" d="M13.7,6.45c-.11-.09-.22-.22-.37-.45v.67c0,.39,0,.65.03,1.23h-.45c.01-.41.03-.82.03-1.23v-.56c-.19.39-.31.54-.44.68l-.37-.23c.5-.5.68-1.13.75-1.54-.16,0-.38,0-.57.04v-.45c.17.03.43.04.51.04h.11c0-.44,0-.49-.01-.92l.46.04s.12.01.12.07c0,.02,0,.05-.15.11-.02.54-.02.6-.02.69.05,0,.32,0,.53-.04v.45c-.21-.04-.46-.04-.53-.04v.13c.11.38.33.73.65.98l-.28.32ZM16.24,7.58c-.37-.26-.66-.6-.88-.99v.07c0,.5.02,1.13.03,1.24h-.47c0-.25.03-.81.03-1.23v-.13c-.14.23-.49.75-1.07,1.07l-.35-.31c.6-.27.99-.76,1.24-1.36h-.06c-.27,0-.55,0-.82.04v-.45c.28.03.7.04.82.04h.24v-.56h-.48c-.14.27-.24.38-.31.47l-.39-.24c.32-.28.52-.75.58-1.24l.44.16s.07.03.07.07-.01.05-.14.08c-.02.08-.04.16-.11.36h.33c0-.43,0-.55-.01-.93l.48.04c.08,0,.1.01.1.05,0,.06-.07.1-.14.13v.7c.29,0,.6-.01.91-.04v.41c-.14,0-.28-.01-.48-.01h-.36s-.06,0-.09,0v.55h.16c.28,0,.56,0,.83-.04v.45c-.36-.04-.8-.04-.83-.04h-.07c.23.55.6,1.05,1.14,1.34l-.35.31Z"/>
        <path class="cls-1" d="M20.76,7.76c-.05.06-.11.11-.25.11-.5,0-1.22-1.04-1.4-2.78h-.83c-.48,0-.93.02-1.31.04v-.45c.49.03.6.04,1.31.04h.79c-.02-.23-.04-.51-.04-1l.55.05c.06,0,.09,0,.09.05,0,.05-.03.07-.13.14-.02.41-.02.63,0,.75h.09c.44,0,.89,0,1.33-.04v.45c-.44-.03-.88-.04-1.33-.04h-.07c.1.97.42,1.75.67,2.04.07.09.17.19.26.19.11,0,.27-.39.31-.57l.29.43c-.08.23-.18.42-.33.58ZM19.17,7.3c-.35.08-1.83.38-1.93.4,0,.04-.02.15-.11.15-.05,0-.06-.05-.07-.09l-.09-.49c.29-.03.68-.08.88-.11v-1.07h-.14c-.1,0-.52.05-.61.05v-.43s.09.02.15.02c.08,0,.43.01.5.01h.64c.05,0,.67-.03.68-.03v.4c-.07,0-.61-.03-.7-.03h-.08v1c.15-.03.78-.14.91-.16l-.05.38ZM20.4,4.55c-.15-.17-.34-.36-.58-.5l.3-.3c.32.16.49.35.59.48l-.32.32Z"/>
        <path class="cls-1" d="M25.43,5.65c-.38-.14-.54-.21-.8-.36v.26c-.23-.03-.51-.03-.73-.03h-.74c-.23,0-.51,0-.73.03v-.28c-.39.26-.58.32-.72.38l-.33-.38c.41-.12.73-.24,1.16-.6.33-.27.63-.58.81-.97l.48.16s.08.04.08.09c0,.04-.04.06-.08.08.13.31.84.98,1.91,1.22l-.29.41ZM23.9,6.36h-.38c-.13.36-.33.69-.49.88.35-.03.84-.09,1.31-.15-.11-.12-.19-.18-.4-.35l.35-.24c.41.31.78.82.91,1.09l-.35.29c-.05-.12-.1-.25-.25-.46-1.53.22-1.65.24-2.33.3-.02.04-.05.11-.11.11-.01,0-.05,0-.06-.07l-.06-.47c.24,0,.33,0,.49-.02.13-.19.37-.52.5-.92h-.17c-.49,0-.72,0-1.15.05v-.44c.44.02.6.03,1.19.03h1c.54,0,.86,0,1.51-.05v.44c-.32-.02-.71-.02-1.51-.02ZM23.48,4.28c-.19.24-.43.56-.89.88.05,0,.34.02.57.02h.74c.18,0,.43-.01.52-.02-.45-.3-.64-.5-.93-.88Z"/>
        <path class="cls-1" d="M27.72,6.53c-.1-.08-.28-.22-.51-.48v.95c0,.18.02.71.03.86h-.47c.04-.43.04-.82.04-.84v-.9c-.27.26-.5.4-.65.5l-.27-.36c.86-.46,1.2-1.01,1.33-1.3h-.51c-.2,0-.4.01-.6.03v-.43c.15.02.19.02.53.02h.15v-.09c0-.23,0-.36-.01-.77l.5.05s.09.04.09.08c0,.06-.09.1-.13.11,0,.11-.01.32-.01.53v.09c.16,0,.32-.02.49-.05l.16.17c-.07.11-.39.61-.46.71-.05.08-.09.13-.12.17.23.23.49.43.75.62l-.31.3ZM29.31,7.64h-.81c-.37,0-.51,0-.81.03v-.42c.26.02.38.02.81.02h.24v-1.78h-.2c-.24,0-.52,0-.74.03v-.41c.3.04.71.04.74.04h.2c0-.7,0-.78-.02-1.43l.48.05s.11,0,.11.07c0,.05-.03.06-.11.1,0,.51,0,.55-.01,1.22h.09s.42,0,.74-.04v.41c-.23-.03-.51-.03-.74-.03h-.09v1.78h.13c.22,0,.58,0,.86-.04v.43c-.32-.02-.44-.03-.86-.03Z"/>
      </g>
      <g>
        <path class="cls-1" d="M38.82,1.13h1.62l-.63,1.73h1.54l-.54,1.48h-1.54l-.33.92c-.91,2.51-2.62,3.98-6.51,4.58l-.07-1.46c3.87-.42,4.56-2.03,4.96-3.11l.33-.92h-2.55l-.86,2.36h-1.58l.86-2.36h-1.48l.54-1.48h1.48l.62-1.7h1.58l-.62,1.7h2.55l.63-1.73Z"/>
        <path class="cls-1" d="M41.04,7.99c3.96-.31,6.51-1.77,9.09-5.75l1.22.74c-3.41,5.16-6.85,6.23-10.41,6.71l.09-1.7ZM45.3,4.46c-.69-.63-1.63-1.18-2.56-1.53l1.2-1.34c1.32.43,2.16.98,2.72,1.42l-1.37,1.45Z"/>
        <path class="cls-1" d="M55.93,1.11l-.86,2.35c1.45.49,2.95,1.27,4,2.08l-1.44,1.65c-.77-.7-2.1-1.64-3.17-2.06l-1.71,4.68h-1.72l3.17-8.71h1.72Z"/>
        <path class="cls-1" d="M69.17,4.64l-.6,1.65h-8.72l.6-1.65h8.72Z"/>
        <path class="cls-1" d="M78.65,1.88l-2.65,7.28h-7.48l.56-1.55h5.81l1.53-4.19h-5.71l.56-1.54h7.38Z"/>
        <path class="cls-1" d="M88.24,4.64l-.6,1.65h-8.72l.6-1.65h8.72Z"/>
      </g>
    </g>
  </g>
</svg>