<?xml version="1.0" encoding="UTF-8"?>
<!DOCTYPE svg PUBLIC "-//W3C//DTD SVG 1.1//EN" "http://www.w3.org/Graphics/SVG/1.1/DTD/svg11.dtd">
<svg xmlns="http://www.w3.org/2000/svg" version="1.1" width="39px" height="19px" style="shape-rendering:geometricPrecision; text-rendering:geometricPrecision; image-rendering:optimizeQuality; fill-rule:evenodd; clip-rule:evenodd" xmlns:xlink="http://www.w3.org/1999/xlink">
<g><path style="opacity:0.826" fill="#008f49" d="M 7.5,-0.5 C 9.83333,-0.5 12.1667,-0.5 14.5,-0.5C 12.2252,5.98917 9.55849,12.3225 6.5,18.5C 4.16667,18.5 1.83333,18.5 -0.5,18.5C -0.5,17.8333 -0.5,17.1667 -0.5,16.5C 2.92276,11.2532 5.58942,5.5865 7.5,-0.5 Z"/></g>
<g><path style="opacity:0.819" fill="#d50010" d="M 19.5,-0.5 C 21.8333,-0.5 24.1667,-0.5 26.5,-0.5C 24.1091,5.94852 21.4425,12.2819 18.5,18.5C 16.1667,18.5 13.8333,18.5 11.5,18.5C 13.8872,12.0577 16.5539,5.72441 19.5,-0.5 Z"/></g>
<g><path style="opacity:0.818" fill="#0067b7" d="M 30.5,-0.5 C 33.1667,-0.5 35.8333,-0.5 38.5,-0.5C 38.5,-0.166667 38.5,0.166667 38.5,0.5C 35.5327,6.43468 32.5327,12.4347 29.5,18.5C 27.1667,18.5 24.8333,18.5 22.5,18.5C 25.4425,12.2819 28.1091,5.94852 30.5,-0.5 Z"/></g>
</svg>
