<?xml version="1.0" encoding="UTF-8"?>
<svg id="_元データ" data-name="元データ" xmlns="http://www.w3.org/2000/svg" viewBox="0 0 2339.8 452.82">
  <defs>
    <style>
      .cls-1 {
        fill: #040000;
      }
    </style>
  </defs>
  <path class="cls-1" d="M427.3,108.97c0,1.81-3.02.6-4.83.91-9.36.3-18.72.3-28.08.6-6.34,2.11-12.68,3.32-19.02,3.93-5.74.6-11.47,1.51-17.21,3.02-1.21.3-1.81-.3-1.51-1.51-.3-.3-.91-.6-1.21-1.21-3.93.3-8.15-.6-12.08,1.51-1.51.91-3.62.91-5.44,1.21-7.85.6-14.8,3.93-22.35,5.13-3.02.91-6.04,1.51-8.76,2.42-1.51.3-3.93.3-3.32,2.72.6,1.81,2.42.91,3.93.91.6,0,1.21,0,2.11-.3,3.02-2.72,6.94-3.02,11.17-3.02,9.36-3.62,19.33-5.44,29.29-7.85,1.51-.3,3.02-.3,4.83-.3-2.72.91-4.53,4.53-8.15,3.02-.91-.3-2.11.3-3.02.6-3.62,1.21-6.34,5.13-11.78,3.02-2.11-.6-6.04,2.42-8.76,4.23-1.81,1.21-1.81,0-2.72-.91-.3,1.21-.3,2.72-2.42,2.72s-3.93.91-5.74,1.81c-2.11,1.21-3.32,0-4.53-1.21-1.51,1.21-2.72,2.72-3.62,3.93-3.02,3.62-3.32,8.76-4.83,13.29-5.13,16-8.15,32.31-14.49,48.01-2.72,6.04-1.21,12.98-4.23,19.02-2.42,3.93-3.02,8.76-5.44,12.68-2.72,9.36-5.44,18.72-9.06,27.78-1.21,3.62-3.93,6.95-3.62,11.17,0,2.72-6.34,9.66-5.13,14.19-1.21,6.04-4.23,11.17-6.34,16.61-.3,1.21-.91,2.42-1.51,3.32-1.21,4.83-2.42,9.66-4.83,14.19-2.72,5.13-3.32,11.17-5.44,16.91-1.81,4.83-3.93,9.66-4.53,14.8-.3,1.21-1.81,2.11-2.72,3.62-1.21-3.32,0-6.34.6-9.06,1.21-12.68,4.53-24.76,7.55-37.14.91-3.02.6-6.04,2.42-8.76.6-2.72,1.21-5.44,2.72-7.85-.3-2.72.3-5.74,1.81-8.15,1.21-6.95,3.62-13.59,6.04-19.93.6-4.53,2.72-8.76,4.23-12.98.3-2.72.6-5.44,2.42-7.55.3-1.21-.6-2.72.91-3.62,3.93-11.47,7.55-23.25,11.47-34.73,1.51-4.53,3.02-9.36,3.93-14.19.3-1.21.6-2.11,1.51-2.72-1.21-2.42,0-3.93,1.21-5.74.3-1.51.6-3.02,1.51-4.53,1.21-6.04,2.72-11.78,4.83-17.51,2.11-5.44,3.02-11.47,4.53-17.21-3.62.6-7.25,1.51-11.17,2.11-1.51.91-2.72,1.81-4.23,2.72-5.44-3.62-4.23,3.62-9.66,2.11-1.51,0-2.72.91-3.93.6-2.42,3.62-6.34,3.93-10.27,4.53-2.11.91-4.23,1.21-6.34,1.81-2.11.91-5.13,3.32-6.64,2.72-3.32-1.51-2.42,4.23-5.13,2.11-13.89,6.34-27.78,12.68-43.79,17.82-3.62,3.62-8.76,5.13-13.29,7.55-9.36,4.83-19.02,9.66-28.08,14.8-5.74,3.62-11.78,6.95-18.72,7.85-4.83.91-10.57-4.23-9.96-9.06.3-1.81,1.21-3.32,3.02-3.62,10.57-3.02,20.23-8.15,29.89-12.68,11.78-5.13,23.55-10.57,35.33-16,.91-.6,1.81-.6,2.72-.6,16.61-8.15,33.52-14.8,51.03-20.53,9.66-3.02,19.33-6.04,28.99-9.06,6.34-1.81,12.08-4.83,18.72-5.74,2.11-.6,4.83-.6,5.74-3.32,1.21-2.72,2.72-4.53,5.44-1.81,1.51,1.81,3.32.6,5.13.3h.91c.3-.91.91-1.21,1.51-.91.6,0,1.21,0,1.81-.3,1.21-.91,5.44-.3,5.74-1.21,4.53-1.21,9.06-2.42,13.59-3.62,4.53-.91,9.36-1.51,13.89-3.62,4.53-1.81,9.36-2.11,13.89-3.02,5.43-1.21,11.47-1.51,17.21-1.21,2.11-1.51,4.53-.3,6.64-.91.3,0,.6.3.6.6-.3.3-.91.6-2.11.91-1.81.91-3.93-.91-5.13,1.21,2.11-.6,4.83.91,6.94-.91,4.53,0,9.06.3,13.59-.91h2.42c-2.72-2.11-6.04,0-9.06-1.21l-.3-.3c4.53-1.21,9.36.3,13.89,0,4.23-.91,8.45-.6,12.68-.3,0,1.21-1.21.6-1.81,1.81h6.04c-.6-1.81-2.42-.3-3.32-1.81h3.62c1.21-.91,2.72-1.21,4.23,0,.3.3.91.3,1.21.6,1.21.91,4.53-1.51,4.23,1.21ZM183.61,169.06c-1.81-.3-3.32.3-4.53,1.81-.91-.3-5.44,1.81-6.04,3.02,3.02-1.21,7.55-.3,10.57-4.83ZM291.71,130.71c-.3-1.81-2.42-.6-3.62-1.21-.3.6-.91,1.51-1.21,1.51-8.45,1.81-16.31,4.83-24.46,6.94-16,4.23-31.4,10.27-47.11,16.31-8.15,3.32-16,6.95-24.16,10.57v.6c-2.42-.3-3.93,1.51-6.95,2.42,2.72.91,5.44,1.21,10.27-1.51,4.23-1.81,8.15-4.53,12.98-5.13,0-.3.3-.91.6-.91,7.55-3.02,15.1-5.74,22.65-8.45.6-.6,1.51-1.21,2.42-1.81,2.72-.3,5.13-.3,7.85-1.81,2.11-1.51,5.13-3.93,8.46-1.81.6,0,1.21,1.51,1.81,0,1.51-2.72,4.23-3.02,6.64-4.53,2.72-1.51,2.42.3,2.72,2.11,1.51,0,3.62.91,2.42-2.11-.3-.91.6-2.11,1.81-2.11,3.93,0,7.25-2.11,11.17-2.72,2.42-.6,4.83-1.81,7.55-1.81,1.81-.6,3.62-.91,5.44-1.81.91-.91,3.02-.91,2.72-2.72ZM254.57,265.69c-.6.91-1.21,1.81-1.81,2.72.91,0,2.11.6,2.72-.6.6-.6,0-1.51-.91-2.11ZM260.61,241.84v4.23c1.21-1.21,1.21-2.72,0-4.23ZM274.2,201.37c-.6,0-.91,1.21-.3,2.11.3-.3.6-.6.6-.91.3-.3,1.21-1.21-.3-1.21ZM359.96,112.29c-1.21,0-2.42,0-3.62.3.91,1.21,1.81.6,2.72.6.6,0,.91-.3.91-.91ZM364.49,112.9c.3,0,0-.3,0-.6-.91,0-1.81.3-2.72.3.3.3.6.91.91,1.51q.3,0,.6-.3c.6,0,.91,0,1.21-.6v-.3ZM374.76,112.6c-.91-1.21-2.11-.91-2.72-1.81-2.42,0-4.83-1.21-6.94,1.51l-.3.3s0,.3.3.6c3.32,0,6.34-2.11,9.66-.6ZM386.53,107.46l.3.3c-.6,1.21-1.21,1.21-2.11.91-.3,0-.6-.91-.3-.91.6-.91,1.51-.3,2.11-.3Z"/>
  <path class="cls-1" d="M379.28,189.3c0,1.21-2.11,2.42-2.11,2.42-3.32,1.21-6.04,2.42-7.85,4.23-6.94,6.95-14.49,12.98-21.44,19.63-7.55,7.55-13.29,16.31-19.93,24.46-4.23,5.44-6.95,12.08-10.27,17.82-1.51,2.42-2.42,4.83-2.42,7.55-.3,4.23-4.23,6.94-8.46,5.74-.91-.6-2.11-.91-1.81-2.11.6-3.32,0-6.94,2.11-9.97,1.51-2.42.91-5.13,1.51-7.85,1.21-3.62,1.81-7.25,3.32-10.57,1.81-3.32,9.36-21.14,10.27-24.76.3-1.81.6-3.93,1.51-5.74.3-.6,1.21-2.11-.91-2.72-1.51-.6-.91-2.11-.3-3.32,1.21-2.11,2.11-3.93,2.42-6.34.3-2.72,7.55-3.32,9.66-1.21,4.83,4.53,5.74,8.45,3.93,16.91,4.23-3.93,8.15-7.55,11.78-10.87,6.94-5.74,13.29-12.68,22.65-13.29,1.81-.3,6.34-1.51,6.34,0Z"/>
  <path class="cls-1" d="M355.42,257.24l-3.62-3.62c-.3.6-3.93-4.23-2.42-9.06,1.51-4.83,8.76-12.08,13.29-18.12,3.93-5.13,9.06-9.06,15.1-11.78,3.32-1.21,7.55-1.51,10.27,2.11,1.81,2.11,3.02,1.21,3.93-.6,1.21-2.11,2.42-4.23,3.62-6.64,1.21-3.32,3.93-4.23,6.64-2.11,1.81,1.51,3.32,3.62,1.51,7.25-3.93,7.25-9.06,14.19-11.17,22.35-.6,2.42.3,2.42,1.81,2.11,1.21-.6,2.42-1.21,3.62-2.11,2.72-2.11,5.44-4.23,8.15-6.34,3.32-3.32,15.4-11.78,17.51-10.87q0,.3-.3.6c-2.42,5.44-7.85,9.06-10.87,14.19-2.42,4.23-6.95,6.34-8.76,10.87-.3.91-1.51,1.21-2.11,1.81-5.74,2.72-13.29.6-16.31-4.83-.3-.6-1.51-1.21-1.21-2.42-3.93,4.83-7.55,9.36-12.08,13.59-4.53,4.23-9.66,5.74-15.7,4.23-.3,0-.6-.3-.91-.6ZM358.44,251.2c3.02-.91,5.44-.91,7.25-2.72,7.55-6.94,15.1-13.89,19.93-23.25.91-2.11,2.11-3.62.3-5.13-1.21-.91-2.72.6-4.23,1.51-4.83,3.32-8.15,8.15-12.08,12.68-4.53,4.53-8.76,9.97-11.17,16.91Z"/>
  <path class="cls-1" d="M504.89,220.4c-2.11,4.23-.6,3.32-3.93,6.95-6.64,7.25-12.98,15.1-19.93,22.04-4.83,5.13-9.66,10.57-17.21,13.29-8.15,2.72-12.08-2.11-16.31-5.74-3.62-3.02-3.32-8.15-1.21-12.68,1.21-2.42,2.42-4.53,3.62-6.94,1.81-2.72,3.93-5.44,5.74-8.15.3-.6,2.11-.3.6-1.51-.91-.91-1.21.3-1.81.91-2.11,2.72-4.53,5.74-6.64,8.76-5.13,7.55-9.97,15.4-14.19,23.55-1.51,3.32-3.32,6.64-4.83,10.27-1.21,2.72-3.32,3.02-5.44,2.11s-3.93-3.02-3.02-4.83c2.72-4.23-.3-8.15-.3-12.38-.6-4.83-1.51-8.76-.91-15.7,1.21-10.87,7.25-23.25,7.25-23.25,3.62-6.64,7.25-13.29,11.78-19.02,1.81-2.42,4.23-3.93,7.25-4.53,3.32-.6,4.53,1.81,6.04,3.62,1.51,1.81.3,3.93-.91,5.13-4.53,5.13-7.85,11.17-11.17,17.21-3.32,6.04-5.44,12.68-8.45,19.02-2.42,4.53-3.02,9.66-3.93,14.8,3.93-3.62,6.34-8.45,9.06-12.98,5.44-8.76,12.68-16.31,19.63-24.16,6.34-7.25,13.89-13.29,21.14-19.93,1.21-1.21,3.02-3.02,4.23.3.6.91,1.51.6,2.42.6,4.23-.3,3.32,2.72,2.42,4.83-2.11,6.34-6.04,11.47-9.97,16.61-5.13,6.64-8.76,14.19-14.49,20.23-.3.3-.91.91-.6,1.51,0,4.53-2.42,8.15-5.13,12.08,5.13,1.51,8.15-1.81,11.47-3.62,7.85-4.53,14.49-10.87,21.14-17.21,5.13-5.13,7.85-4.83,12.98-9.97.91-.6,2.11-.91,3.62-1.21Z"/>
  <path class="cls-1" d="M553.2,196.84v.91c-3.02,1.51-4.83,0-6.64-2.11-1.51-2.11-2.72-2.11-5.74-1.21-8.15,2.72-12.38,10.27-18.72,15.4-5.74,4.53-14.8,24.46-14.19,26.57.6,2.72.6,5.74,4.53,7.25,6.95,2.42,14.49,3.62,20.84,7.55,3.32,2.11,3.62,4.53,1.51,7.55-2.11,2.42-4.53,5.13-7.25,6.64-9.06,5.74-16.61,13.89-26.27,18.72-5.74,3.02-10.87,6.64-16.91,8.15-2.11.6-4.53-.3-5.74-2.11-1.81-2.42-2.42-4.53-1.21-7.85,4.23-10.27,12.08-18.12,19.33-25.97,2.72-2.72,6.04-4.83,9.06-7.25,1.21-.6,2.42-.91,1.51-2.72-1.51-3.02-4.83-4.53-5.74-7.85-.3-1.51-1.51-6.04-.91-9.66,3.02-15.1,12.68-25.67,23.86-35.03,3.62-3.32,7.55-6.94,13.29-7.25,6.34-.6,12.38,2.42,14.49,8.76,0,.6-.3,1.51.91,1.51ZM507.3,253.01c-4.83,5.13-9.06,10.57-14.19,15.7-2.72,3.02-5.13,6.95-7.55,12.08,14.19-7.85,27.18-15.7,37.14-26.88-1.81-.91-3.62-1.51-5.44-2.42-3.62-1.51-6.34-2.42-9.96,1.51Z"/>
  <path class="cls-1" d="M574.64,216.17c-3.62,2.11-5.13,5.13-6.04,9.06-2.11,7.85-4.53,15.4-5.74,23.25-.3,1.81-2.11,3.32-3.02,4.53-1.81,3.32.3,7.55-3.62,9.97-1.51.91.6,2.42.3,4.23-2.11,10.87-4.23,22.04-6.04,33.22-.6,4.23-2.11,8.15-2.11,12.68,0,.91,0,1.81-1.51,2.42-3.02-27.48,2.11-54.35,6.95-81.53-3.62,3.93-7.25,7.85-9.66,12.38-.91,1.81-2.11,1.51-3.02,1.51-1.81.3-2.11-1.21-2.11-2.72-.3-3.02,1.51-5.44,3.32-7.85,3.93-5.44,9.06-10.27,13.89-15.4,2.72-2.72,3.93-7.55,4.83-11.47,2.11-7.55,5.44-14.49,8.45-21.74,2.72-6.64,5.74-13.29,8.76-19.93,5.13-10.87,11.17-21.14,20.23-29.29,4.23-3.93,11.47-4.83,15.4,1.81,5.13,8.15,6.94,17.21,3.02,26.88-.6,1.81-1.51,3.02-3.93,2.72,3.32-9.36-.6-17.21-3.62-25.67-16,13.29-24.76,38.95-35.33,63.72,7.85-3.32,15.1-5.44,23.25-5.44.6,0,1.51-.3,2.11,0,2.11,1.81,6.34,1.21,6.04,2.72-.3,1.81-4.53,3.62-4.53,3.62-8.76-1.81-19.33,2.11-26.27,6.34Z"/>
  <path class="cls-1" d="M656.77,226.44s.3,1.51-3.32,3.93c-1.21.91-10.57,6.04-10.87,5.44-2.72,3.02-4.53,6.34-6.34,9.97-4.23,7.55-9.66,14.19-18.42,16.61-10.27,2.72-19.02-4.23-19.33-14.49-.3-12.08,2.72-22.95,12.08-31.71,3.62-3.32,6.64-7.55,11.47-9.66.91-.6.91-2.42,1.51-4.23l3.02-4.53c3.62-.91,7.55-1.51,11.17,1.21,2.72,1.51,4.53,3.02,5.44,6.34,1.81,7.85,2.11,15.4.6,22.95-.3.91-1.81,1.81,0,2.42.91.3,6.64-.3,8.15-.91,1.51-.91,4.83-3.32,4.83-3.32ZM632.61,236.4c-5.44-3.93-11.48-6.95-11.17-14.8-2.42.3-3.32,2.42-4.23,3.93-5.44,7.25-10.27,14.8-10.27,24.16.3,4.23,2.11,5.74,6.04,4.53,9.36-3.32,15.1-9.97,19.63-17.82ZM626.87,221.91c3.93-3.02,5.44-5.74,6.34-9.06-6.34-.3-3.93,5.13-6.34,9.06ZM637.74,213.15c-1.81,4.53-4.53,7.25-7.25,9.97-1.51,1.21-1.81,2.72-.6,4.23s2.72,3.02,4.83,3.32c2.11,0,1.81-2.11,2.42-3.62,1.21-4.23,1.21-8.76.6-13.89ZM634.42,206.81c1.21.3,2.11,2.42,3.02,3.93,1.21-2.11-.6-3.93-.6-5.74.3-1.21-.91-1.81-2.11-1.81s-.91.91-1.21,1.51c-.3,1.21-.6,1.81.91,2.11Z"/>
  <path class="cls-1" d="M718.67,189.3c0,1.21-2.11,2.42-2.11,2.42-3.32,1.21-6.04,2.42-7.85,4.23-6.94,6.95-14.49,12.98-21.44,19.63-7.55,7.55-13.29,16.31-19.93,24.46-4.23,5.44-6.95,12.08-10.27,17.82-1.51,2.42-2.42,4.83-2.42,7.55-.3,4.23-4.23,6.94-8.45,5.74-.91-.6-2.11-.91-1.81-2.11.6-3.32,0-6.94,2.11-9.97,1.51-2.42.91-5.13,1.51-7.85,1.21-3.62,1.81-7.25,3.32-10.57,1.81-3.32,9.36-21.14,10.27-24.76.3-1.81.6-3.93,1.51-5.74.3-.6,1.21-2.11-.91-2.72-1.51-.6-.91-2.11-.3-3.32,1.21-2.11,2.11-3.93,2.42-6.34.3-2.72,7.55-3.32,9.66-1.21,4.83,4.53,5.74,8.45,3.93,16.91,4.23-3.93,8.15-7.55,11.78-10.87,6.94-5.74,13.29-12.68,22.65-13.29,1.81-.3,6.34-1.51,6.34,0Z"/>
  <path class="cls-1" d="M807.74,182.95c-2.11,9.06-8.15,16.31-12.38,24.16-5.74,11.78-11.47,23.25-17.21,34.73-1.21,2.11-1.51,4.53-2.72,6.64,3.62-1.81,6.64-4.53,8.45-7.85,4.53-6.95,20.23-20.84,21.44-19.02,1.21,2.11-21.44,34.42-21.14,35.33,0,0-.3.3-.6.91-1.51.6-2.72,1.21-3.93,2.42-2.72,2.72-6.95.91-9.36-.91-4.23-3.02-6.34-7.25-4.83-13.59,1.51-6.64,4.83-12.38,7.25-18.72,2.42-5.44,6.04-10.57,8.76-15.7.3-1.21.91-1.81,0-3.02-9.06,10.27-17.51,21.14-25.06,32.61-2.11,3.62-3.93,7.25-5.74,11.17-2.42,4.83-6.34,7.85-12.08,7.55s-8.45-4.53-9.66-9.36c-1.21-4.53.6-8.76,2.11-12.68,2.72-6.64,4.83-13.29,9.36-19.02.6-.6.6-1.51,0-2.42-8.45,10.87-16.61,22.04-22.95,34.42-1.51,3.02-3.62,6.04-4.23,9.36-.3,3.32.91,4.83,4.23,3.93,1.51-.6,3.02-.6,4.83-.3-2.72,3.32-6.64,3.32-9.97,3.62-1.21,0-2.72,0-3.62.6-3.62,2.42-4.23-.3-4.53-2.72-.6-3.32-3.62-5.44-3.93-8.76,0-.3-1.51-6.34-1.21-8.76.91-4.83,2.11-9.66,3.02-14.49,1.21-7.25,4.53-13.29,8.76-18.72,3.62-5.13,6.94-10.27,11.47-14.49,2.42-1.81,4.83-2.72,7.55-3.93,3.62-1.21,4.23,1.21,5.44,2.72,1.51,1.81-.91,2.72-1.81,3.62-9.06,10.57-16.61,21.74-21.44,34.42-1.21,3.02-1.21,6.64-2.11,10.87,2.42-2.72,3.32-5.44,4.53-7.55,9.97-17.51,22.65-33.22,37.75-46.8,2.72-2.42,7.85-3.32,10.27-.91,2.11,2.11.91,5.13,0,7.55-3.62,11.47-11.17,20.84-16.31,31.71-2.11,4.53-4.83,9.06-6.34,14.19-.3,1.81-1.21,3.62-2.72,5.13-.91.91.3,2.11.3,3.02.3,1.21,1.51.6,2.11.6,2.42,0,.6-1.51.6-2.11,1.51-4.53,3.93-8.15,6.64-11.78,8.15-10.87,16-21.44,24.46-32.01,3.32-4.23,8.45-6.04,12.08-10.27.3-.6.91-.6,1.21-.91,1.51-5.74,1.81-6.95,6.04-9.97,2.42-1.81,4.53-3.93,6.34-6.04,2.72-3.02,5.74-2.42,8.76-3.02,1.81-.3,1.51,2.42,3.02,3.02,1.21.6-.6.91-.91,1.51Z"/>
  <path class="cls-1" d="M798.98,257.24l-3.62-3.62c-.3.6-3.93-4.23-2.42-9.06,1.51-4.83,8.76-12.08,13.29-18.12,3.93-5.13,9.06-9.06,15.1-11.78,3.32-1.21,7.55-1.51,10.27,2.11,1.81,2.11,3.02,1.21,3.93-.6,1.21-2.11,2.42-4.23,3.62-6.64,1.21-3.32,3.93-4.23,6.64-2.11,1.81,1.51,3.32,3.62,1.51,7.25-3.93,7.25-9.06,14.19-11.17,22.35-.6,2.42.3,2.42,1.81,2.11,1.21-.6,2.42-1.21,3.62-2.11,2.72-2.11,5.44-4.23,8.15-6.34,3.32-3.32,15.4-11.78,17.51-10.87q0,.3-.3.6c-2.42,5.44-7.85,9.06-10.87,14.19-2.42,4.23-6.95,6.34-8.76,10.87-.3.91-1.51,1.21-2.11,1.81-5.74,2.72-13.29.6-16.31-4.83-.3-.6-1.51-1.21-1.21-2.42-3.93,4.83-7.55,9.36-12.08,13.59-4.53,4.23-9.66,5.74-15.7,4.23-.3,0-.6-.3-.91-.6ZM802,251.2c3.02-.91,5.44-.91,7.25-2.72,7.55-6.94,15.1-13.89,19.93-23.25.91-2.11,2.11-3.62.3-5.13-1.21-.91-2.72.6-4.23,1.51-4.83,3.32-8.15,8.15-12.08,12.68-4.53,4.53-8.76,9.97-11.17,16.91Z"/>
  <path class="cls-1" d="M1074.07,140.98c-1.51-2.11-3.32-4.23-4.83-6.34-4.23-6.04-10.87-7.25-16.91-9.06-9.66-3.02-19.63-5.74-30.2-5.44-2.11.3-4.23.3-6.34-.6-1.81,1.81-3.32-.6-5.13-.3-3.62,0-6.64,1.81-10.27,2.11-1.81,0-2.42-3.32-4.53-1.21-.3,1.81-1.81,2.11-3.32,1.81h-2.42c-2.72,1.21-5.74,1.81-8.76,1.81-5.13,1.81-25.06,6.04-28.08,6.04-1.51,0-3.32-2.11-3.62,1.21-.3.6-.3,1.81-1.51,1.51-1.81-.6-.3-1.81-.91-3.02-2.42,1.51-3.02,3.93-5.74,4.53-6.94,1.81-13.59,4.23-20.23,5.74-1.51.6-2.72,1.51-3.32,2.72-3.93,7.85-10.27,14.8-11.17,24.16,0,.6-.91.91-1.21,1.21-2.42,1.51-3.62,4.23-4.83,6.64-1.51,3.62-3.02,7.55-4.53,11.17-3.02,6.64-5.74,13.59-9.36,19.93-3.62,6.95-4.53,14.8-7.25,22.04-3.62,8.15-4.83,17.21-6.94,25.97-1.21,4.83,1.21,6.95,5.74,5.44,12.08-4.53,19.63-14.49,28.69-22.95,2.42-2.42,15.7-17.51,16.91-14.49.91,2.72-6.34,15.1-6.34,15.1,0,0-9.97,11.48-9.36,9.97-2.11,0-2.72,1.51-3.62,2.11-5.13,6.34-12.08,10.87-18.42,16-6.95,5.44-19.02.91-21.44-7.55-3.62-11.78-.6-22.65,2.72-33.82,4.23-14.49,10.57-28.08,16.31-41.97,3.32-8.15,7.25-16.31,11.78-23.86,2.11-3.62,3.93-7.25,6.64-12.08-2.72,2.42-5.44.3-7.85,2.42-2.72,2.42-7.25,2.72-10.87,3.93,0-.6.91-1.81,0-2.11-1.21-.3-1.51,1.21-1.51,2.42-.6,1.21-1.81.6-2.72.6-1.51.91-3.02,2.11-5.13,1.81-.91,2.11-2.72,3.02-5.13,2.42-.6-3.02,2.72-3.02,3.93-4.23-.6-.6-1.51-1.81-1.81-1.21-1.51,2.11-4.53,1.51-6.34,3.32-3.93.91-7.85,1.81-11.47,3.02,0,0-2.11,3.02-3.32,2.72-2.42-.3-4.23.3-6.34,2.42-1.51,1.51-3.62,2.42-5.74,3.62,0,1.21,2.42.3,1.81,2.11-.3.91-1.21,1.51-2.42,1.21-.91,0-1.81.3-2.72.91-.6.6-1.51,1.51-2.42,2.11-1.21.6-2.72,1.81-2.42-1.51.3-1.21-1.81-.6-2.72-.91-.3.3-.6.91-.91,1.21,0,1.81,3.02,0,2.42,2.42-.91.91-.91,3.62-3.32,1.81-2.11.91-4.53,2.11-6.95,3.32-1.51,1.51-3.62,2.42-5.74,3.32-1.81,1.21-3.02,3.02-5.13,3.02-2.72,1.51-7.85-3.62-7.85-7.85,5.74-1.51,10.27-5.13,15.4-7.85,10.57-5.44,21.14-10.27,32.31-14.8,13.89-5.74,28.08-11.78,42.58-16.31,6.04-1.81,11.78-4.23,17.82-6.04,1.81-.6,3.32-2.11,4.23-3.93,3.62-5.44,6.64-11.48,11.17-16.31,1.81-2.11,3.62-3.32,6.34-2.11,3.02,1.51,3.93,2.72,3.32,6.04-.3,3.02-1.51,5.44-3.93,7.25-1.21.6-1.51,2.11-2.11,3.32,10.87-3.02,21.74-6.04,32.31-9.06,1.81-.3,25.06-5.44,25.06-4.53,11.78-2.11,23.55-2.42,35.03-1.81,13.29.91,26.27,3.02,38.05,8.76,4.23,1.81,8.45,4.23,11.47,7.25,3.32,3.62,5.44,8.15,5.44,13.29ZM836.42,165.74c-1.51.91-3.62.6-4.53,2.42.6,0,1.51.3,1.81.3.3-1.21,2.42-1.21,2.72-2.72ZM846.09,165.44c.3,2.42-2.72,1.21-3.32,3.32-.3-2.11-1.21-3.62,1.21-4.23,1.21,0,1.81-.3,2.11.91ZM850.92,163.93c-1.21.3-2.42,2.42-3.02.91-1.21-1.81,1.51-2.11,2.42-3.32,1.81.3,1.21,1.21.6,2.42ZM857.86,160.31c.3.3-.3,1.21-.6,1.21-1.81-.3-2.72,3.32-4.53.91-.6-.91-.6-1.81,0-2.72,1.51,0,3.62-.91,5.13.6ZM865.71,157.89c0-.91-.91-2.11.91-2.42,1.51-.3,1.51.6,1.81,1.81-.6,1.21-1.81.6-2.72.6ZM892.29,141.89c0-.3-.3-.6-.6-.91-.6.6-1.21.91-1.81,1.21l1.21,1.21c.3-.6.91-.91,1.21-1.51ZM901.35,138.57c-1.21,0-2.42.3-3.62.6-1.51.3-3.02,1.21-.6,2.11.91.3,4.53.6,4.23-2.72ZM968.08,119.54c-.91-.3-1.81,0-3.02.3-8.76,1.81-17.21,4.53-25.67,6.64-4.83,1.21-9.66,2.11-14.19,4.83-.91.6-1.51.91-1.21,1.81,0,.6.6,1.21,1.21.6,1.21-1.81,3.02-.3,4.53-.91,10.27-3.93,21.14-6.04,32.01-8.45,2.72-.91,6.34-.3,6.34-4.83ZM990.12,116.82c0-1.81-1.81-.6-2.72-.91-.6,0-1.51,0-1.81.91-1.51.6-4.83-1.21-4.83,1.81.3,1.21,3.02.91,4.83.3l.3-.3h1.51c1.51,0,2.72-.6,2.72-1.81ZM1013.07,113.8c-2.42.3-5.13.3-7.55.6-4.83.91-10.27-.3-14.8,2.11,0,.3.3.91.3,1.21,4.83-.91,9.66-1.81,14.49-2.72,2.42-.3,5.44.91,7.55-1.21Z"/>
  <path class="cls-1" d="M962.04,225.53c-1.81,5.13-4.53,8.45-4.83,8.15-.3.3-.6.6-1.21.91-3.62,4.23-6.34,8.76-8.76,13.29-2.11,4.23-5.74,6.64-8.76,9.66-.91.91-1.81,1.81-2.42,2.42-4.53,4.23-8.45,3.62-13.59.3-3.62-2.11-2.72-5.74-4.23-7.85-.6.6,1.21-20.23,4.23-27.18,3.32-6.64,6.34-12.98,10.57-19.02,1.51-2.11,3.93-2.42,6.04-1.51,3.02.91,4.23,3.02,2.42,6.64-1.81,4.53-6.04,8.15-7.25,13.29-2.42,9.06-7.25,17.51-6.34,27.18,0,.91-1.51,1.21-.6,2.42,6.95-3.02,11.17-9.06,16.31-14.19,6.04-6.64,11.78-13.29,18.42-19.63.3-.3,2.11,0,0,5.13ZM946.03,176.61c.3-4.23,2.72-7.55,4.23-11.17,1.21-3.02,3.93-4.53,6.94-5.13,2.11-.3,5.13,3.02,4.83,6.34-.3,1.81-1.81,3.02-3.62,3.93-3.62,1.81-6.94,4.53-9.96,7.55-.91.91-1.51.91-2.42.6-1.21-.6,0-1.51,0-2.11Z"/>
  <path class="cls-1" d="M1014.88,226.44s.3,1.51-3.32,3.93c-1.21.91-10.57,6.04-10.87,5.44-2.72,3.02-4.53,6.34-6.34,9.97-4.23,7.55-9.66,14.19-18.42,16.61-10.27,2.72-19.02-4.23-19.33-14.49-.3-12.08,2.72-22.95,12.08-31.71,3.62-3.32,6.64-7.55,11.47-9.66.91-.6.91-2.42,1.51-4.23l3.02-4.53c3.62-.91,7.55-1.51,11.17,1.21,2.72,1.51,4.53,3.02,5.44,6.34,1.81,7.85,2.11,15.4.6,22.95-.3.91-1.81,1.81,0,2.42.91.3,6.64-.3,8.15-.91,1.51-.91,4.83-3.32,4.83-3.32ZM990.72,236.4c-5.44-3.93-11.48-6.95-11.17-14.8-2.42.3-3.32,2.42-4.23,3.93-5.44,7.25-10.27,14.8-10.27,24.16.3,4.23,2.11,5.74,6.04,4.53,9.36-3.32,15.1-9.97,19.63-17.82ZM984.98,221.91c3.93-3.02,5.44-5.74,6.34-9.06-6.34-.3-3.93,5.13-6.34,9.06ZM995.85,213.15c-1.81,4.53-4.53,7.25-7.25,9.97-1.51,1.21-1.81,2.72-.6,4.23s2.72,3.02,4.83,3.32c2.11,0,1.81-2.11,2.42-3.62,1.21-4.23,1.21-8.76.6-13.89ZM992.53,206.81c1.21.3,2.11,2.42,3.02,3.93,1.21-2.11-.6-3.93-.6-5.74.3-1.21-.91-1.81-2.11-1.81s-.91.91-1.21,1.51c-.3,1.21-.6,1.81.91,2.11Z"/>
  <path class="cls-1" d="M1098.22,220.4c-2.11,4.23-.6,3.32-3.93,6.95-6.64,7.25-12.98,15.1-19.93,22.04-4.83,5.13-9.66,10.57-17.21,13.29-8.15,2.72-12.08-2.11-16.31-5.74-3.62-3.02-3.32-8.15-1.21-12.68,1.21-2.42,2.42-4.53,3.62-6.94,1.81-2.72,3.93-5.44,5.74-8.15.3-.6,2.11-.3.6-1.51-.91-.91-1.21.3-1.81.91-2.11,2.72-4.53,5.74-6.64,8.76-5.13,7.55-9.97,15.4-14.19,23.55-1.51,3.32-3.32,6.64-4.83,10.27-1.21,2.72-3.32,3.02-5.44,2.11s-3.93-3.02-3.02-4.83c2.72-4.23-.3-8.15-.3-12.38-.6-4.83-1.51-8.76-.91-15.7,1.21-10.87,7.25-23.25,7.25-23.25,3.62-6.64,7.25-13.29,11.78-19.02,1.81-2.42,4.23-3.93,7.25-4.53,3.32-.6,4.53,1.81,6.04,3.62,1.51,1.81.3,3.93-.91,5.13-4.53,5.13-7.85,11.17-11.17,17.21-3.32,6.04-5.44,12.68-8.45,19.02-2.42,4.53-3.02,9.66-3.93,14.8,3.93-3.62,6.34-8.45,9.06-12.98,5.44-8.76,12.68-16.31,19.63-24.16,6.34-7.25,13.89-13.29,21.14-19.93,1.21-1.21,3.02-3.02,4.23.3.6.91,1.51.6,2.42.6,4.23-.3,3.32,2.72,2.42,4.83-2.11,6.34-6.04,11.47-9.97,16.61-5.13,6.64-8.76,14.19-14.49,20.23-.3.3-.91.91-.6,1.51,0,4.53-2.42,8.15-5.13,12.08,5.13,1.51,8.15-1.81,11.47-3.62,7.85-4.53,14.49-10.87,21.14-17.21,5.13-5.13,7.85-4.83,12.98-9.97.91-.6,2.11-.91,3.62-1.21Z"/>
  <path class="cls-1" d="M1126.9,249.09c-.3,1.51-1.21,2.42-2.42,3.02-2.11,1.21-4.53,2.42-7.25,2.42-.91.3-1.81-.91-3.02-.3-.3,0,0-1.51-.91-.6-.6.3-1.21.3-1.51.6-.6,0-1.51,0-2.11.3-1.21.3-2.72-.3-4.23,0l-.3-.3c.3-.3.6-.6.91-.6,1.81,0,3.32-.6,4.83-1.51,2.72-1.81,5.74-3.02,8.15-4.83,1.21-1.21,2.11-4.53,1.51-6.04-.91-2.42-2.11-4.53-4.23-5.74-1.21-.6-2.11-1.21-1.51-2.42.3-.6,2.42-1.21,3.32-.6,1.21.6,2.72,1.21,3.93,2.42,2.11,2.11,3.62,4.53,4.53,7.25,1.21,2.11,1.21,4.53.3,6.95Z"/>
  <path class="cls-1" d="M1316.83,136.45c-3.93,12.38-12.98,20.53-22.04,28.99h-.3c-2.11.6-4.83,3.32-6.34,1.21-1.81-2.11.91-3.62,2.42-5.13,8.15-7.55,15.1-16,19.33-26.27,4.23-11.17-.91-19.33-11.47-24.76-9.66-5.13-18.72-1.51-27.78,1.51-11.17,3.62-19.93,10.87-29.29,17.51-2.11,1.21-3.93,3.02-5.74,4.53-.6,1.81-1.51,3.02-3.62,3.32h-.91c-.6,2.42-2.42,3.93-4.23,5.13-3.62,0-4.83,3.02-6.94,5.13,0,1.81-.91,2.72-2.72,3.32-2.72,1.21-3.93,4.53-6.64,6.34-.3,1.81-1.81,3.32-3.62,3.93h-.3l-.3.3c-.3,1.51-1.21,2.72-2.72,3.02-2.11,1.51-2.11,4.83-5.13,5.44-3.32,2.11-4.83,9.36-8.15,10.57-.6.3-.91.6-1.21.91-.3.3-.91.3-1.21.91-.3,0,0,.6,0,.91.3-.3.91-.3,1.21-.6-3.02,5.44-6.95,10.57-10.87,15.7-4.23,5.44-6.95,11.47-10.57,17.21-4.83,7.85-6.04,17.21-9.66,25.67-2.11,5.44-1.81,12.08-2.42,18.42,0,4.23.91,7.85,1.21,11.47,2.42,12.08,6.04,23.55,12.98,33.52,6.94,9.97,17.21,13.89,29.29,12.98,8.15-.3,15.4-2.42,22.04-7.55.3-.3.91-.3,1.51-.3,12.38-8.76,23.86-18.42,34.73-29.29,13.59-14.19,22.65-30.5,30.5-48.01.6-2.42,1.51-4.53,2.11-6.94,1.81,3.02-.6,5.13-.3,7.85,0,.3-.3.6-.3.91.6,2.72-1.21,5.13-1.51,7.55-2.11,5.44-6.04,10.27-7.55,16.31-2.11,2.11-3.02,4.83-4.23,7.25-3.62,6.94-9.97,11.78-14.19,18.42,2.42,1.21,2.72-1.81,4.23-2.11,2.42,1.81,2.42-.6,3.02-1.81,4.53-.6-5.74,9.66-8.76,12.38-1.81,1.51-3.02,3.62-5.13,4.53-4.23,4.23-9.06,7.25-12.98,11.48-6.64,7.25-14.8,11.47-23.55,14.49-8.76,3.02-17.82,4.83-26.88,2.42-12.68-3.32-23.25-9.97-30.8-20.84-5.74-8.45-9.97-17.51-12.38-27.18-2.42-9.06-2.11-18.72-.91-28.08,1.51-10.57,4.83-20.53,8.76-30.5,2.11-5.13,5.44-9.36,7.85-14.49,4.23-8.15,9.36-16,15.4-22.95,5.13-5.74,9.97-11.47,14.49-17.51,3.93-5.13,7.85-10.57,12.98-14.49,8.45-5.74,13.89-14.8,22.35-19.93,6.94-4.23,12.38-10.87,20.53-13.89,6.04-2.72,10.87-7.85,17.51-9.96,11.48-3.32,22.65-4.83,34.12,1.21,7.25,3.93,12.98,8.76,15.4,16.61,1.21,4.53.91,8.76-.3,13.29ZM1252.81,293.47c1.51-.91,2.42-1.81,3.32-2.42,2.11-1.21,3.93-2.42,3.93-5.44-2.42,1.51-4.23,2.72-5.13,5.13-1.51,0-2.11.91-2.11,2.72ZM1276.97,271.13,1286.94,249.99c0,2.11.91,4.23-1.51,5.74q-1.81,4.83-4.53,3.32c1.21-.91,2.42-2.11,3.32-3.32-.6-1.51,1.21-2.11.91-3.32.6-.91.3-2.11,1.81-2.42ZM1291.77,240.93c-.6,2.42-1.81,4.53-2.72,6.95-2.11-1.81-.3-3.32-.3-4.83,4.53-6.34,3.32-3.93,3.02-2.11Z"/>
  <path class="cls-1" d="M1353.97,261.16c-3.62,5.13-8.15,7.85-11.48,12.38-3.32,4.23-10.57,3.62-15.4.3-.6-.3-.91-.6-.91-1.51-.91-1.81-1.51-3.62-3.32-5.44-2.42-2.72,0-6.64.91-9.97,2.42-7.25,6.94-13.29,10.57-19.93,3.62-6.95,8.76-12.68,12.08-19.63.91-2.11,2.42-3.62,3.93-5.74-.6,0-1.21-.3-1.51-.3-6.34,6.04-13.29,11.47-18.72,18.42-4.83,6.04-9.97,11.78-13.59,17.82-4.23,7.25-9.36,14.49-10.87,22.65-.6,3.32-.6,6.95-1.81,10.27-1.21,3.02-1.51,6.95-5.74,7.85-1.81.6-2.11,2.11-2.11,3.62,0,2.11.91,5.74-.3,5.74-1.21.3-2.72-6.04-3.02-9.36-.91-11.17,3.32-21.14,7.25-31.4,5.13-13.89,10.27-27.78,15.4-41.67,6.04-15.7,13.89-30.8,20.53-46.5,0-.6.6-.91,1.81-2.11-1.81.3,5.74-12.38,6.34-13.29,1.51-3.32,4.53-6.34,6.04-9.97,2.42-5.44,6.64-10.27,9.36-15.7,1.51-2.42,3.32-4.53,5.13-6.64,2.42-2.72,5.44-1.51,6.94-.3,1.51,1.21,1.51,4.23,0,6.34-6.64,8.45-11.17,18.12-16,27.48,1.51,0-5.13,11.78-6.04,13.59-2.11,6.04-5.44,11.47-8.15,17.21-6.04,12.08-11.48,24.46-16.01,37.14-1.51.6-.91,2.11-1.81,3.32,2.42,0,1.81-1.81,2.72-2.42,7.55-10.27,16.61-18.42,27.48-25.06,2.42-1.51,3.02-1.21,5.44,1.51,0,.3.3.3.3.3,8.76,1.81,2.11,6.95,1.81,10.27,0,3.02-2.72,6.04-4.53,9.06-3.62,6.64-7.55,12.98-10.57,19.93-.91,2.11-3.02,3.62-3.93,6.04-2.11,4.23-2.72,9.06-5.13,13.59-1.21,2.42-2.72,4.53-3.32,7.55,3.02-.3,4.83-2.42,6.34-3.93,4.23-4.53,8.76-9.06,11.78-14.19,1.81-3.02,5.13-9.36,6.04-9.36,1.21,0,4.83,9.06-3.93,22.04ZM1307.16,246.97c-.91,1.21-2.11,1.21-2.11,3.02,1.51-.6,2.42-.91,2.11-3.02ZM1314.71,227.04c-1.21,2.11-3.62,6.64-3.62,9.66,1.51-2.72,3.02-6.04,3.62-9.66ZM1319.85,213.76c-1.21,3.32-2.42,6.94-4.83,9.96,3.32-.6,5.44-6.64,4.83-9.96ZM1322.26,211.34c.91-6.04,3.02-5.44,3.62-12.08-1.21,2.72-3.02,9.36-5.44,11.17-.6.6-.6,1.21.3,1.81.91.3,1.51-.6,1.51-.91ZM1326.49,228.25c-.6,1.21-2.42,1.51-1.81,3.93.91-1.51,2.72-1.81,1.81-3.93ZM1327.39,198.05c-.91-1.21,2.11-2.11.91-3.62-1.51.91-1.51,2.11-.91,3.62ZM1333.74,246.67c-2.42,3.62-4.23,6.34-4.83,9.66,1.81-2.72,4.53-5.13,4.83-9.66ZM1330.72,191.71c.6-1.81,1.51-3.93,2.11-6.04,1.21-1.81,3.02-3.32,2.42-6.34-2.11,2.11-2.42,4.23-3.32,6.34-.6,1.81-2.42,3.62-1.21,6.04ZM1338.26,215.87c-2.72.6-3.32,2.72-5.13,4.83,2.72-1.21,4.53-2.11,5.13-4.83ZM1335.25,174.2c.6,1.81,1.21,2.72,1.51,4.23.6-1.81.91-3.02-1.51-4.23ZM1339.17,172.99c.6-1.51,3.02-5.44,3.02-6.34,0-.3-.6-.6-.91-.6-1.21.3-.3,1.51-.91,2.42l-1.21,4.53ZM1354.87,254.22c-2.11,1.21-4.83,1.81-4.83,4.83-2.72.3-3.02,3.02-4.53,4.53,1.81-1.81,5.44-.91,6.34-4.23,2.42-.91,2.42-3.02,3.02-5.13ZM1356.68,252.1c-.3-.6-.6-1.21-1.21-.91-.6.3-1.21.91-.91,1.51.3.3.91.3,1.21.3.6.3.91-.3.91-.91Z"/>
  <path class="cls-1" d="M1367.55,257.24l-3.62-3.62c-.3.6-3.93-4.23-2.42-9.06,1.51-4.83,8.76-12.08,13.29-18.12,3.93-5.13,9.06-9.06,15.1-11.78,3.32-1.21,7.55-1.51,10.27,2.11,1.81,2.11,3.02,1.21,3.93-.6,1.21-2.11,2.42-4.23,3.62-6.64,1.21-3.32,3.93-4.23,6.64-2.11,1.81,1.51,3.32,3.62,1.51,7.25-3.93,7.25-9.06,14.19-11.17,22.35-.6,2.42.3,2.42,1.81,2.11,1.21-.6,2.42-1.21,3.62-2.11,2.72-2.11,5.44-4.23,8.15-6.34,3.32-3.32,15.4-11.78,17.51-10.87q0,.3-.3.6c-2.42,5.44-7.85,9.06-10.87,14.19-2.42,4.23-6.95,6.34-8.76,10.87-.3.91-1.51,1.21-2.11,1.81-5.74,2.72-13.29.6-16.31-4.83-.3-.6-1.51-1.21-1.21-2.42-3.93,4.83-7.55,9.36-12.08,13.59-4.53,4.23-9.66,5.74-15.7,4.23-.3,0-.6-.3-.91-.6ZM1370.57,251.2c3.02-.91,5.44-.91,7.25-2.72,7.55-6.94,15.1-13.89,19.93-23.25.91-2.11,2.11-3.62.3-5.13-1.21-.91-2.72.6-4.23,1.51-4.83,3.32-8.15,8.15-12.08,12.68-4.53,4.53-8.76,9.97-11.17,16.91Z"/>
  <path class="cls-1" d="M1540.27,138.26c0,1.51-.91,2.72-2.11,3.02-1.51.3-1.81-.91-2.11-2.11v-.6c-1.51-4.53-16.31,11.47-20.84,17.51-6.34,9.36-10.57,19.93-16.91,29.29-4.83,7.25-8.15,15.4-11.47,23.55-2.11,4.23-3.93,9.06-6.34,12.98-2.72,3.93-10.57,19.63-10.87,21.14-.91,3.62-1.81,7.55-3.02,10.27-1.51,2.72-2.42,6.04-4.23,8.76-3.02,5.13-3.02,11.78-4.23,17.51-4.23,17.82,4.53,25.97,3.32,27.18-1.21.6-9.06-10.27-10.27-15.7-2.11-7.25,0-14.19.6-21.44.3-4.83,2.11-9.36,3.62-13.89.3-.91,0-2.72,2.11-2.72,1.21,0,1.51-1.81,1.21-2.11-.91-2.72-.6-5.44.3-7.85-5.74,7.85-11.17,16-16,24.46,0,.3-.91.3-.91.6-.3.91,4.53.91.3,2.11-1.51.6-2.42,1.21-3.93,2.11-.91.91-2.42-.91-2.72-1.81-1.21-5.13-5.13-9.06-6.04-14.19-1.51-7.55,1.21-14.49,2.42-21.44.6-4.83,2.72-9.06,4.53-13.59.3-.91.3-2.72,2.42-2.42,1.21,0,1.51-1.81,1.51-2.11-1.81-6.34,3.32-10.57,5.13-16,1.81-4.83,4.53-9.36,7.85-13.59.3-.3.91-.3.91-.6,3.02-8.76,7.25-16.91,12.08-24.76,5.74-9.36,11.78-19.02,18.72-27.78,5.44-7.25,11.78-13.89,18.42-20.53,4.23-4.53,8.45-8.45,14.49-10.27,8.76-2.72,15.4,5.74,14.19,12.38,0,1.51-1.21,2.72-2.42,2.72-1.21.3-1.81-.91-1.81-2.42v-.3c-1.21-4.83-2.72-5.74-6.94-3.62-6.95,3.32-11.78,9.06-16.61,14.8-7.25,8.76-12.38,19.02-19.33,27.78-5.43,6.94-9.36,14.8-13.59,22.35-2.11,4.23-4.23,9.06-7.25,12.38-3.02,3.93-3.02,9.97-8.45,12.38-.91.3-.91,1.81-.3,2.42,1.51,1.81-.6,2.42-.91,3.62-2.42-1.21-2.42.3-3.02,2.11-.91,3.32-2.11,7.25-3.62,9.97-1.81,2.72-2.72,5.74-4.83,8.45-3.62,4.83-4.53,11.17-5.74,16.91-.91,3.32-1.81,6.95-2.72,10.27-.6,2.42,1.21,4.53.91,7.55,6.34-10.27,11.78-15.7,19.33-23.86,2.72-3.02,7.55-9.36,11.47-13.59.91-1.81,1.81-3.32,2.72-4.83.3-.6.91-.6.91-.91,2.42-9.06,5.74-17.51,9.97-25.67,5.13-9.97,10.27-19.93,16.31-29.29,5.13-7.55,10.87-14.8,16.91-21.74,3.93-4.83,7.85-9.36,13.59-11.47,8.45-3.32,13.89,0,13.29,6.64ZM1493.47,187.48q-.3.91-1.51,3.32c-1.21,2.42-1.81,3.62-1.51,3.32.6,0,1.21-.3,2.42-1.51.91-1.51.6-5.13.6-5.13Z"/>
  <path class="cls-1" d="M1550.23,230.36c.6,3.32-15.7,23.86-22.35,29.59-5.44,4.83-16,11.17-22.35,10.57-4.83-.6-9.66-6.95-9.97-12.68-.6-4.83-1.21-6.95,0-14.8,1.21-7.55,8.45-21.14,10.57-24.76,3.32-6.04,6.64-12.38,10.87-18.12,3.62-5.44,10.27-7.25,16-5.13,4.53,1.81,4.53,6.04,5.13,9.66,1.21,6.95-4.23,19.33-12.08,23.86-4.23,2.72-6.64,2.42-12.38,3.93-1.51.3-2.72.6-3.62.6-2.11,4.53-3.93,9.06-5.13,13.59-1.51,5.13-1.21,9.97-.3,14.8.3,2.11,1.51,2.42,3.32,2.11,7.25-1.51,11.78-6.34,17.21-10.87,3.93-3.32,24.16-25.97,25.06-22.35ZM1514.6,223.72c-.6,1.51-1.51,3.02-2.11,4.53,2.72.91,11.78-5.74,12.68-7.25,2.72-4.53,4.23-9.06,5.44-14.19.6-1.81-.91-3.32-1.21-6.04-2.11,5.13-6.34,7.55-9.06,11.78-2.72,3.62-3.93,7.55-5.74,11.17Z"/>
  <path class="cls-1" d="M1633.57,220.4c-2.11,4.23-.6,3.32-3.93,6.95-6.64,7.25-12.98,15.1-19.93,22.04-4.83,5.13-9.66,10.57-17.21,13.29-8.15,2.72-12.08-2.11-16.31-5.74-3.62-3.02-3.32-8.15-1.21-12.68,1.21-2.42,2.42-4.53,3.62-6.94,1.81-2.72,3.93-5.44,5.74-8.15.3-.6,2.11-.3.6-1.51-.91-.91-1.21.3-1.81.91-2.11,2.72-4.53,5.74-6.64,8.76-5.13,7.55-9.97,15.4-14.19,23.55-1.51,3.32-3.32,6.64-4.83,10.27-1.21,2.72-3.32,3.02-5.44,2.11s-3.93-3.02-3.02-4.83c2.72-4.23-.3-8.15-.3-12.38-.6-4.83-1.51-8.76-.91-15.7,1.21-10.87,7.25-23.25,7.25-23.25,3.62-6.64,7.25-13.29,11.78-19.02,1.81-2.42,4.23-3.93,7.25-4.53,3.32-.6,4.53,1.81,6.04,3.62,1.51,1.81.3,3.93-.91,5.13-4.53,5.13-7.85,11.17-11.17,17.21-3.32,6.04-5.44,12.68-8.45,19.02-2.42,4.53-3.02,9.66-3.93,14.8,3.93-3.62,6.34-8.45,9.06-12.98,5.44-8.76,12.68-16.31,19.63-24.16,6.34-7.25,13.89-13.29,21.14-19.93,1.21-1.21,3.02-3.02,4.23.3.6.91,1.51.6,2.42.6,4.23-.3,3.32,2.72,2.42,4.83-2.11,6.34-6.04,11.47-9.97,16.61-5.13,6.64-8.76,14.19-14.49,20.23-.3.3-.91.91-.6,1.51,0,4.53-2.42,8.15-5.13,12.08,5.13,1.51,8.15-1.81,11.47-3.62,7.85-4.53,14.49-10.87,21.14-17.21,5.13-5.13,7.85-4.83,12.98-9.97.91-.6,2.11-.91,3.62-1.21Z"/>
  <path class="cls-1" d="M1690.64,230.36c-1.81,1.21-3.32,2.42-5.13,3.62-2.11,1.21-11.78,6.94-12.38,7.55-4.83,2.72-9.06,6.04-13.59,8.76-2.42,1.81-3.02,4.53-3.93,6.94-4.83,11.78-9.97,22.95-15.4,34.42-3.02,6.95-6.04,14.19-9.97,20.53-8.15,12.38-14.49,25.97-23.86,37.44-2.42,3.02-8.76,4.23-12.38,2.42-4.23-2.11-6.34-7.55-5.44-12.08.6-3.32,3.02-6.34,2.11-9.97-.3-.91,1.21,0,1.81-1.21,3.02-7.55,5.74-15.4,9.36-22.65,3.32-6.64,7.85-13.29,12.38-19.33,8.15-10.27,17.51-19.33,27.18-28.69,2.42-2.42,3.02-6.04,4.23-9.06.6-1.21,1.21-2.72,2.11-4.83-3.32,2.42-5.44,4.83-6.95,7.55-3.02,4.83-10.27,10.27-16,7.55-5.13-2.11-5.74-6.04-6.64-9.97l.3-7.55c.6-.6,1.21-1.21,1.51-2.11,4.83-10.87,12.68-19.93,20.84-28.38,4.53-4.53,9.06-9.36,16.31-9.97,5.13-.6,7.25,2.42,7.85,7.55,1.21,12.08-3.93,22.95-4.83,35.03,2.72.3,4.23-2.42,6.64-3.32.91-.6,1.51-1.51,2.42-1.81,3.32-1.21,19.93-11.17,22.65-11.47.6,1.21.3,2.11-1.21,3.02ZM1637.79,270.52c-22.95,19.93-35.03,44.69-40.16,73.68,18.12-21.74,27.78-48.31,40.16-73.68ZM1616.66,323.07c-.3-.3-.6-.3-.91,0-.6.91-1.51,1.51,0,2.11-.91.91-1.81,1.51-2.11,2.42-1.51,3.93-4.53,6.94-6.34,10.57-1.51,2.42-3.93,4.53-4.23,8.45,5.44-7.25,10.57-13.59,13.89-21.44,1.21-.6.3-1.21-.3-2.11ZM1634.77,289.25c1.51-1.51,1.81-3.02.6-5.13-.91.91-1.51,2.11-1.51,3.32-1.81,3.62-3.32,7.85-5.13,10.87-4.23,6.64-6.95,14.19-10.57,20.84-.6.91-.91,1.51.3,1.81.6,0,1.21,0,1.81-.91,4.23-8.76,8.76-17.51,12.98-26.27.91-1.51,1.81-2.72,1.51-4.53ZM1653.5,211.64c-11.47,11.78-22.35,23.85-26.27,40.46,14.8-9.66,19.02-25.97,26.27-40.46ZM1639.3,274.75c-.6,1.81-2.72,3.02-2.11,5.13-4.23,2.11.6,6.64.91,1.81,1.21-2.11,3.93-3.93,1.21-6.94ZM1643.23,269.62c0-.91,2.11-1.81,0-2.42-2.11-.6-1.51,1.21-1.81,2.42-1.21.91-1.21,2.42-.3,3.32.91.6,1.21-.6,1.21-1.51.91-.3.91-1.21.91-1.81Z"/>
  <path class="cls-1" d="M1737.14,230.36c.6,3.32-15.7,23.86-22.35,29.59-5.44,4.83-16,11.17-22.35,10.57-4.83-.6-9.66-6.95-9.97-12.68-.6-4.83-1.21-6.95,0-14.8,1.21-7.55,8.45-21.14,10.57-24.76,3.32-6.04,6.64-12.38,10.87-18.12,3.62-5.44,10.27-7.25,16-5.13,4.53,1.81,4.53,6.04,5.13,9.66,1.21,6.95-4.23,19.33-12.08,23.86-4.23,2.72-6.64,2.42-12.38,3.93-1.51.3-2.72.6-3.62.6-2.11,4.53-3.93,9.06-5.13,13.59-1.51,5.13-1.21,9.97-.3,14.8.3,2.11,1.51,2.42,3.32,2.11,7.25-1.51,11.78-6.34,17.21-10.87,3.93-3.32,24.16-25.97,25.06-22.35ZM1701.5,223.72c-.6,1.51-1.51,3.02-2.11,4.53,2.72.91,11.78-5.74,12.68-7.25,2.72-4.53,4.23-9.06,5.44-14.19.6-1.81-.91-3.32-1.21-6.04-2.11,5.13-6.34,7.55-9.06,11.78-2.72,3.62-3.93,7.55-5.74,11.17Z"/>
  <path class="cls-1" d="M1770.65,249.09c-.3,1.51-1.21,2.42-2.42,3.02-2.11,1.21-4.53,2.42-7.25,2.42-.91.3-1.81-.91-3.02-.3-.3,0,0-1.51-.91-.6-.6.3-1.21.3-1.51.6-.6,0-1.51,0-2.11.3-1.21.3-2.72-.3-4.23,0l-.3-.3c.3-.3.6-.6.91-.6,1.81,0,3.32-.6,4.83-1.51,2.72-1.81,5.74-3.02,8.15-4.83,1.21-1.21,2.11-4.53,1.51-6.04-.91-2.42-2.11-4.53-4.23-5.74-1.21-.6-2.11-1.21-1.51-2.42.3-.6,2.42-1.21,3.32-.6,1.21.6,2.72,1.21,3.93,2.42,2.11,2.11,3.62,4.53,4.53,7.25,1.21,2.11,1.21,4.53.3,6.95Z"/>
  <path class="cls-1" d="M1945.49,123.16c.91-5.44-3.32-11.47-8.76-12.98-9.66-2.72-19.63-3.02-29.59-.6-12.38,3.02-25.06,6.04-36.54,11.47-6.34,3.02-12.68,5.74-18.42,9.97-5.74,4.53-12.68,7.55-18.72,11.78-6.94,5.44-14.49,10.27-20.53,16.31-10.87,10.57-19.02,23.25-20.23,38.95-1.21,16.61,5.13,27.18,22.04,36.54,10.57,6.04,22.04,9.06,33.22,12.98,13.89,4.83,28.08,8.45,41.97,13.29,10.87,3.62,21.44,8.15,31.1,15.1,1.21.91,2.72,2.11,3.62,3.32,2.11,3.62,7.85,6.64,5.74,10.57-3.02,5.74-7.85,11.17-14.49,13.59-3.93,1.21-6.94,3.32-10.57,5.44-6.04,3.02-11.47,7.85-19.02,7.55-2.11-.3-3.62,2.72-6.34,3.62-8.15,2.42-16,5.74-24.46,7.55-11.78,2.42-23.25,3.32-35.03,3.02-10.27-.3-19.63-3.02-27.78-9.66-3.02-2.42-5.13-6.04-6.34-9.66-1.81-5.13,1.81-8.45,5.44-11.48,3.32-3.02,7.25-4.83,11.78-6.34,11.47-3.62,22.95-7.55,34.73-11.47.91-.3,2.11-.91,3.32,0-2.11,4.23-6.64,4.53-10.27,6.04-10.57,5.13-21.44,9.66-31.1,16.31-2.72,1.81-4.53,4.53-5.44,7.25-.6,2.11.3,4.53,2.42,6.04,2.42,1.51,5.44,2.72,8.45,3.02,9.66.91,19.02,1.21,28.39,0,3.62-.6,7.55-1.51,11.17-1.81,6.95-1.51,13.89-3.62,20.53-6.04,14.19-5.13,27.78-10.27,40.16-19.02,3.93-2.72,7.55-5.44,11.17-8.45,2.42-2.42,1.81-3.32-.91-5.44-5.74-3.62-11.78-6.64-18.12-8.76-8.76-3.02-17.21-7.55-26.27-9.36-11.47-2.72-22.35-7.55-33.52-10.57-11.17-3.32-22.04-8.15-31.4-14.49-16.91-11.47-24.46-27.78-22.35-48.01,1.51-13.29,7.25-24.76,16.91-33.82,17.82-16.91,38.05-30.2,60.69-39.56,16.61-6.94,33.52-12.08,51.34-13.59,10.27-1.21,20.23.3,28.69,6.34,10.27,7.25,13.59,15.4,6.94,29.29-7.25,14.19-15.4,27.78-24.46,40.77-7.25,10.27-14.49,20.84-23.25,30.2-1.51,1.51-3.02,3.32-5.44,3.93-2.72.91-5.13-.3-6.64-2.72-1.21-2.11-.6-3.93,1.81-5.74,8.76-7.85,15.4-17.21,22.35-26.57,9.66-13.29,19.63-26.57,27.48-41.07,2.11-4.23,3.62-8.45,4.53-12.98ZM1809,152.76c-2.11-.6-2.42,1.21-3.32,2.11-.3.91-2.72.6-1.81,2.11.91,1.21,1.51-.6,2.11-.91,1.21-.91,2.42-1.81,3.02-3.32ZM1818.66,143.09c-2.11,3.02-6.04,3.93-7.25,7.55,2.42-1.21,6.04-4.53,7.25-7.55ZM1825.6,326.39c-2.11-3.02-3.93-2.42-6.04-.3,2.11,0,3.93,0,6.04.3ZM1825.3,138.87c-1.51.6-2.42,2.11-3.93,3.02q3.02-.6,3.93-3.02ZM1899.59,302.53c-1.81-.3-3.02.3-3.62,1.81,0,0-.3,0-.3.3-2.72-.3-4.83,1.51-6.94,3.02-7.55,2.42-15.4,5.13-22.95,8.45-2.11-.3-3.32,1.81-5.13,1.81-3.32-.3-6.04,2.42-9.36,1.81-1.21.91-2.72.6-4.23.6-.91,1.81-2.72.3-3.62,1.81h-1.51c-3.32.6-6.34,1.21-9.66,1.81-1.51-.3-2.72.3-3.93,1.21.6.3,1.21.91,1.81,1.21.6-.3,1.51-.6,2.11-.91.6,0,1.21,0,1.81.3,2.11.6,4.23-.6,6.04-1.21h.91c.91-.3,1.81.3,2.42-.91q0-.3.3-.6h3.02c1.51.6,2.72,0,3.62-.91h1.51c.91-.6,2.11,0,2.72-.6v-.3c1.51-.3,2.72-.6,4.23-.91.3-.91,1.81-.3,1.81-1.51,2.42-.6,6.94-.3,8.45-2.11,6.94-2.72,14.19-5.13,20.84-8.45,2.11-.91,4.53-1.51,5.74-3.62,1.51-.3,3.32-.3,3.93-2.11ZM1904.72,298.91c-1.81,1.21-2.72,1.81-4.23,2.72,2.11.3,3.32,0,4.23-2.72Z"/>
  <path class="cls-1" d="M2007.68,221c0,.6.3-.3-1.81,1.81-1.81,1.81-6.04,5.74-6.64,6.34-.3.3-.91,1.81-.91,1.81-.3,0-.91.3-1.21.6-1.81,1.21-3.32,2.72-4.23,4.53-5.74,10.57-13.89,19.63-22.65,28.08-5.13,4.83-10.57,9.06-16.61,12.68-3.32,1.81-6.64,2.11-10.27.6-1.81-.91-3.02-.3-3.62,1.51-7.55,18.72-16.91,36.54-22.35,56.17-1.51,4.53-1.51,9.66-4.83,13.59-.6.6-.3,2.11-.3,3.02.91,3.32-2.11,5.13-3.93,4.83-3.02-.3-3.02.91-2.72,3.02.3,2.42-.91,4.23-2.72,6.04-.6,0-1.21.3-1.81-.3-1.81-9.06,0-18.12,2.11-26.88,3.32-14.8,7.25-29.59,10.87-44.39,1.51-5.44,3.02-11.17,5.44-16.31.91-2.72-1.21-6.04,2.42-7.85-.3.3-.6.3-.6.3,0-.3,6.64-17.21,6.64-17.82,4.53-4.53,5.13-16.31,8.45-22.65,3.62-5.44,6.04-11.17,9.36-16.61,3.32-5.74,6.64-11.78,11.47-16.61,2.72-2.72,9.06-3.32,11.17-.3,1.51,2.11-.3,4.23-1.51,6.04-2.72,4.53-4.83,9.36-7.25,13.89-7.25,12.98-11.17,27.48-18.12,40.46-.3.3,0,.91,0,1.81,5.74-8.76,11.17-17.51,17.21-25.97,6.34-9.36,13.29-18.42,20.23-27.18,4.23-5.44,8.76-10.57,13.59-15.4,1.51-1.51,3.93-5.74,7.25-1.21.6.91,1.21,0,1.81-.3.91-.3,1.81-.6,2.11.6,2.72,6.04,3.93,12.38,1.51,18.72-.3,1.21-.6,2.11-.3,3.93,0,0-1.81,7.25-3.02,9.96-.91,2.72,4.23,0,4.23,0,0,0,1.81-1.21,1.51-.6ZM1903.2,347.83c-.3,4.83-1.51,9.66-.6,14.8,1.51-9.06,1.21-11.78.6-14.8ZM1905.01,339.37c.3,2.42-2.11,4.53-.91,7.25.91-2.42,2.11-4.83.91-7.25ZM1917.09,298c-1.81,4.23-3.62,13.29-4.53,19.02,1.51-5.44,4.53-12.68,4.53-19.02ZM1919.51,291.36c1.21-3.62,2.11-7.25,3.32-11.17h.3-.3v-.3c.6-2.11,1.51-3.93,2.11-6.04h-.6.6c.6-2.11,1.21-4.23,2.11-7.55-2.42,2.72-2.72,5.13-2.72,7.55-1.21,1.81-2.42,3.62-1.51,6.04v.3c-3.32,3.32-3.32,7.25-3.32,11.17ZM1922.53,309.78c-2.72-.3.3,2.72-2.11,2.72-.3,0,.6.6.91.6,2.11.3.91-1.51,1.51-2.42.6-.3.6-.6-.3-.91ZM1960.58,240.63c2.11-2.72,2.42-4.53-.3-6.95-2.11,3.32-4.23,6.64-6.34,10.27-3.02,5.13-6.04,10.27-9.66,14.8-3.32,4.23-5.44,9.36-8.15,13.89-2.42,4.53-6.04,9.66-5.13,15.7-.3,0-1.21,0-1.21.3-.3,3.32-3.02,5.44-3.02,9.06,0,3.02-3.02,5.13-2.72,8.46-2.42-.6-1.81,1.21-.91,1.81,1.21.91,1.81-.3,2.42-1.51,1.81-3.93,3.93-8.15,5.13-12.38.6-1.81,3.02-3.32,1.51-5.44,1.51-.91,1.51-2.42,2.42-3.62,3.93-6.04,4.23-13.59,8.45-19.63,1.81-2.72,4.23-4.53,6.04-7.25,3.32-6.04,6.94-12.08,11.47-17.51ZM1928.87,261.47c.3-1.21,2.11-2.11,1.21-3.93-1.81,1.21-1.81,2.42-1.21,3.93ZM1997.72,194.13c-6.04,8.76-28.08,30.8-29.89,35.93.3-.91,0-1.81-.91-2.11-.6-.3-2.11-.3-2.11,0-.6,1.81-3.32,3.02-2.72,5.13.91,2.42,2.72-.3,4.23.3.3.3.91,0,1.21-.3-3.62,7.55-9.66,13.29-13.59,21.74,7.25-6.04,13.29-11.78,19.93-16.31,6.64-3.93,12.08-8.15,15.4-15.4,4.23-9.06,8.45-18.12,8.45-28.99ZM1979,239.12c-.3-.3-.91-.3-1.21-.3-1.21,0-1.81.6-.91,1.21.6.91,1.51-.3,2.11-.91Z"/>
  <path class="cls-1" d="M2113.97,240.93c-5.13,9.36-8.45,10.87-14.49,13.59-5.13,2.42-11.17,3.32-13.59,3.32-.3,0-.6.3-.91.3-2.72,0-5.44-.91-7.85-2.11-7.25-4.23-12.38-10.27-14.49-16.91-5.13,7.55-13.29,17.21-17.21,20.84-5.74,5.13-16.31,11.17-22.65,10.57-4.83-.6-9.66-6.95-9.97-12.68-.6-4.83-1.21-6.95,0-14.49,1.21-7.85,8.45-21.44,10.57-25.06,3.62-6.04,6.64-12.38,10.87-18.12,3.62-5.44,10.57-7.25,16-5.13,4.53,1.81,4.53,6.04,5.13,9.66,1.51,6.95-3.93,19.33-12.08,23.86-4.23,2.72-6.34,2.42-12.38,3.93-1.51.3-2.72.6-3.62.6-2.11,4.53-3.93,9.06-5.13,13.59-1.21,5.13-1.21,9.97-.3,14.8.3,2.11,1.51,2.42,3.62,2.11,6.95-1.51,11.47-6.34,16.91-10.87,2.72-2.11,12.68-13.29,19.33-19.02-.3-5.44,1.21-11.17,4.53-16.91,5.44-8.76,21.74-13.29,30.8-8.76,5.44,3.02,6.64,7.55,2.72,14.19-3.32,5.74-7.25,10.87-13.89,14.19-5.44,2.42-9.66,2.11-15.1-2.11.6,6.04,2.11,10.57,6.34,13.29,2.42,1.81,5.13,2.11,7.85,1.81.3,0,4.83-1.51,8.15-3.32.91-.3,2.11-1.51,3.02-2.42,1.51,1.21.6.3,1.51,0,1.21-.3,1.21-.6,2.11-.91.91-.3,0-.91-1.21-1.21,3.62-3.93,8.45-9.06,10.87-12.08,3.62-4.23,3.62-12.38,4.53-12.08,2.11.6,5.13,2.11,6.04,5.74s-.91,8.45-6.04,17.82ZM2029.72,228.25c2.72.91,12.08-5.74,12.68-7.25,2.72-4.23,4.23-9.06,5.44-14.19.6-1.81-.91-3.32-.91-6.04-2.42,5.13-6.64,7.55-9.36,11.78-2.42,3.62-3.93,7.55-5.74,11.17-.6,1.51-1.51,3.02-2.11,4.53ZM2078.64,228.85c6.34-2.11,11.78-6.04,16-11.17,2.11-3.02,0-4.23-2.42-5.13-5.74-1.81-16.31,6.34-16.61,12.38-1.21,3.32-.3,4.83,3.02,3.93ZM2104.61,246.97c-.3,0-.6.91-2.11,1.21,0,0,.3.6.6.91.3,0,.91-.6,1.51-.91.91-.6.6-1.21,0-1.21ZM2108.84,244.56c-.6,0-.91.3-1.21.6,0,.3.6.6.6.6.3-.6,1.21-1.21.6-1.21Z"/>
  <path class="cls-1" d="M2163.49,238.82c-3.62-.3-8.45-7.55-11.78-12.08-.3-.3,0-.91-.3-2.42-4.23,6.64-7.85,12.68-12.68,18.12-4.53,5.44-8.76,11.47-14.8,15.7-5.74,3.93-14.49,2.11-17.21-3.62-1.81-3.62-.91-8.15.91-11.48,4.83-10.87,11.78-20.84,19.63-30.2,3.02-3.62,7.25-5.74,11.48-7.25,3.32-1.21,8.45,1.21,9.36,4.83.3.6,0,1.51.91,1.51s1.81-.91,1.81-1.51c.3-6.34,2.72-12.38,4.53-18.12,1.81-6.34,4.23-12.38,6.95-18.12,3.32-7.25,6.94-14.49,10.87-21.44,7.25-12.08,14.49-24.46,23.85-35.63,2.11-2.42,4.83-2.72,6.95-.91,1.81,1.81,1.21,4.53-.3,6.64-6.94,8.15-11.78,17.51-16.91,26.57-5.13,9.06-8.76,19.02-12.38,28.69-2.11,6.04-4.23,12.08-7.55,17.82-3.32,6.04-6.04,12.98-6.94,20.23-.3,4.83-1.21,9.36.91,13.89.91,1.81,2.42,2.72,3.32,4.23.6.91,0,1.81,2.72,1.51,2.72,0,6.64-2.11,6.95-1.51.3.91-6.64,4.83-10.27,4.53ZM2149.3,213.76c-2.72,0-3.02.91-3.62,1.51-2.72,3.93-5.74,7.25-9.97,9.66-4.23,2.11-8.76,4.83-11.78,8.15-4.83,5.13-8.45,11.78-9.96,19.63,15.7-9.66,24.76-24.46,35.33-38.95ZM2149.3,221.61c-1.21.6-2.72.91-2.72,3.02,1.51-.6,2.42-1.51,2.72-3.02ZM2164.09,180.24c1.21-.91,1.81-1.81.6-3.32.6,1.51-1.51,1.51-.6,3.32Z"/>
</svg>